                                                                        S      1
,,10HLM10UU.ipt,27HNo Iges File Name specified,22HAutodesk Inventor 2013G      1
,37HAutoDesk Inventor Iges Exporter R2013,32,38,6,99,15,10HLM10UU.ipt,  G      2
1.0D0,2,2HMM,1,.08D0,15H20140111.175538,.01D0,10000.0D0,6HMatteo,,11,0,,G      3
;                                                                       G      4
     406       1       0       0       1       0       0       000000000D      1
     406       0       0       1       3                               0D      2
     128       2       0       0       0       0       0       000010000D      3
     128       0       0      28       0                               0D      4
     504      30       0       0       0       0       0       000010001D      5
     504       0       0       4       1                               0D      6
     502      34       0       0       0       0       0       000010000D      7
     502       0       0      10       1                               0D      8
     126      44       0       0       0       0       0       000010000D      9
     126       0       0      11       2                               0D     10
     508      55       0       0       0       0       0       000010000D     11
     508       0       0       1       1                               0D     12
     126      56       0       0       0       0       0       000010000D     13
     126       0       0      11       2                               0D     14
     508      67       0       0       0       0       0       000010000D     15
     508       0       0       1       1                               0D     16
     510      68       0       0       0       0       0       000010000D     17
     510       0    -191       1       1                               0D     18
     128      69       0       0       0       0       0       000010000D     19
     128       0       0       8       0                               0D     20
     508      77       0       0       0       0       0       000010000D     21
     508       0       0       1       1                               0D     22
     126      78       0       0       0       0       0       000010000D     23
     126       0       0       7       2                               0D     24
     508      85       0       0       0       0       0       000010000D     25
     508       0       0       1       1                               0D     26
     510      86       0       0       0       0       0       000010000D     27
     510       0    -191       1       1                               0D     28
     128      87       0       0       0       0       0       000010000D     29
     128       0       0      42       0                               0D     30
     126     129       0       0       0       0       0       000010000D     31
     126       0       0       7       2                               0D     32
     508     136       0       0       0       0       0       000010000D     33
     508       0       0       1       1                               0D     34
     126     137       0       0       0       0       0       000010000D     35
     126       0       0       7       2                               0D     36
     508     144       0       0       0       0       0       000010000D     37
     508       0       0       1       1                               0D     38
     510     145       0       0       0       0       0       000010000D     39
     510       0    -191       1       1                               0D     40
     128     146       0       0       0       0       0       000010000D     41
     128       0       0      20       0                               0D     42
     126     166       0       0       0       0       0       000010000D     43
     126       0       0       7       2                               0D     44
     508     173       0       0       0       0       0       000010000D     45
     508       0       0       1       1                               0D     46
     508     174       0       0       0       0       0       000010000D     47
     508       0       0       1       1                               0D     48
     510     175       0       0       0       0       0       000010000D     49
     510       0    -191       1       1                               0D     50
     128     176       0       0       0       0       0       000010000D     51
     128       0       0       4       0                               0D     52
     508     180       0       0       0       0       0       000010000D     53
     508       0       0       1       1                               0D     54
     508     181       0       0       0       0       0       000010000D     55
     508       0       0       1       1                               0D     56
     510     182       0       0       0       0       0       000010000D     57
     510       0    -191       1       1                               0D     58
     128     183       0       0       0       0       0       000010000D     59
     128       0       0       4       0                               0D     60
     508     187       0       0       0       0       0       000010000D     61
     508       0       0       1       1                               0D     62
     126     188       0       0       0       0       0       000010000D     63
     126       0       0       7       2                               0D     64
     508     195       0       0       0       0       0       000010000D     65
     508       0       0       1       1                               0D     66
     510     196       0       0       0       0       0       000010000D     67
     510       0    -191       1       1                               0D     68
     128     197       0       0       0       0       0       000010000D     69
     128       0       0      21       0                               0D     70
     126     218       0       0       0       0       0       000010000D     71
     126       0       0       7       2                               0D     72
     508     225       0       0       0       0       0       000010000D     73
     508       0       0       1       1                               0D     74
     508     226       0       0       0       0       0       000010000D     75
     508       0       0       1       1                               0D     76
     510     227       0       0       0       0       0       000010000D     77
     510       0    -191       1       1                               0D     78
     128     228       0       0       0       0       0       000010000D     79
     128       0       0       4       0                               0D     80
     126     232       0       0       0       0       0       000010000D     81
     126       0       0       7       2                               0D     82
     508     239       0       0       0       0       0       000010000D     83
     508       0       0       1       1                               0D     84
     508     240       0       0       0       0       0       000010000D     85
     508       0       0       1       1                               0D     86
     510     241       0       0       0       0       0       000010000D     87
     510       0    -191       1       1                               0D     88
     128     242       0       0       0       0       0       000010000D     89
     128       0       0      27       0                               0D     90
     126     269       0       0       0       0       0       000010000D     91
     126       0       0      10       2                               0D     92
     508     279       0       0       0       0       0       000010000D     93
     508       0       0       1       1                               0D     94
     126     280       0       0       0       0       0       000010000D     95
     126       0       0      10       2                               0D     96
     508     290       0       0       0       0       0       000010000D     97
     508       0       0       1       1                               0D     98
     510     291       0       0       0       0       0       000010000D     99
     510       0    -191       1       1                               0D    100
     128     292       0       0       0       0       0       000010000D    101
     128       0       0       8       0                               0D    102
     508     300       0       0       0       0       0       000010000D    103
     508       0       0       1       1                               0D    104
     126     301       0       0       0       0       0       000010000D    105
     126       0       0       7       2                               0D    106
     508     308       0       0       0       0       0       000010000D    107
     508       0       0       1       1                               0D    108
     510     309       0       0       0       0       0       000010000D    109
     510       0    -191       1       1                               0D    110
     128     310       0       0       0       0       0       000010000D    111
     128       0       0      40       0                               0D    112
     126     350       0       0       0       0       0       000010000D    113
     126       0       0       7       2                               0D    114
     508     357       0       0       0       0       0       000010000D    115
     508       0       0       1       1                               0D    116
     126     358       0       0       0       0       0       000010000D    117
     126       0       0       7       2                               0D    118
     508     365       0       0       0       0       0       000010000D    119
     508       0       0       1       1                               0D    120
     510     366       0       0       0       0       0       000010000D    121
     510       0    -191       1       1                               0D    122
     128     367       0       0       0       0       0       000010000D    123
     128       0       0      19       0                               0D    124
     126     386       0       0       0       0       0       000010000D    125
     126       0       0       7       2                               0D    126
     508     393       0       0       0       0       0       000010000D    127
     508       0       0       1       1                               0D    128
     508     394       0       0       0       0       0       000010000D    129
     508       0       0       1       1                               0D    130
     510     395       0       0       0       0       0       000010000D    131
     510       0    -191       1       1                               0D    132
     128     396       0       0       0       0       0       000010000D    133
     128       0       0       4       0                               0D    134
     508     400       0       0       0       0       0       000010000D    135
     508       0       0       1       1                               0D    136
     508     401       0       0       0       0       0       000010000D    137
     508       0       0       1       1                               0D    138
     510     402       0       0       0       0       0       000010000D    139
     510       0    -191       1       1                               0D    140
     128     403       0       0       0       0       0       000010000D    141
     128       0       0       4       0                               0D    142
     508     407       0       0       0       0       0       000010000D    143
     508       0       0       1       1                               0D    144
     126     408       0       0       0       0       0       000010000D    145
     126       0       0       7       2                               0D    146
     508     415       0       0       0       0       0       000010000D    147
     508       0       0       1       1                               0D    148
     510     416       0       0       0       0       0       000010000D    149
     510       0    -191       1       1                               0D    150
     128     417       0       0       0       0       0       000010000D    151
     128       0       0      21       0                               0D    152
     126     438       0       0       0       0       0       000010000D    153
     126       0       0       7       2                               0D    154
     508     445       0       0       0       0       0       000010000D    155
     508       0       0       1       1                               0D    156
     508     446       0       0       0       0       0       000010000D    157
     508       0       0       1       1                               0D    158
     510     447       0       0       0       0       0       000010000D    159
     510       0    -191       1       1                               0D    160
     128     448       0       0       0       0       0       000010000D    161
     128       0       0       4       0                               0D    162
     126     452       0       0       0       0       0       000010000D    163
     126       0       0       7       2                               0D    164
     508     459       0       0       0       0       0       000010000D    165
     508       0       0       1       1                               0D    166
     508     460       0       0       0       0       0       000010000D    167
     508       0       0       1       1                               0D    168
     510     461       0       0       0       0       0       000010000D    169
     510       0    -191       1       1                               0D    170
     128     462       0       0       0       0       0       000010000D    171
     128       0       0      19       0                               0D    172
     508     481       0       0       0       0       0       000010000D    173
     508       0       0       1       1                               0D    174
     508     482       0       0       0       0       0       000010000D    175
     508       0       0       1       1                               0D    176
     510     483       0       0       0       0       0       000010000D    177
     510       0    -191       1       1                               0D    178
     128     484       0       0       0       0       0       000010000D    179
     128       0       0      18       0                               0D    180
     508     502       0       0       0       0       0       000010000D    181
     508       0       0       1       1                               0D    182
     508     503       0       0       0       0       0       000010000D    183
     508       0       0       1       1                               0D    184
     510     504       0       0       0       0       0       000010000D    185
     510       0    -191       1       1                               0D    186
     514     505       0       0       0       0       0       000010000D    187
     514       0       0       2       1                               0D    188
     186     507       0       0       1       0       0       000000000D    189
     186       0       0       1       0                 Solido1       0D    190
     314     508       0       0       0       0       0       000000000D    191
     314       0       8       1       0                               0D    192
406,2,0,6HLM10UU;                                                      1P      1
128,1,8,1,2,0,1,0,0,0,0.0D0,0.0D0,.140831139468655D0,                  3P      2
.140831139468655D0,0.0D0,0.0D0,0.0D0,11.1537571358252D0,               3P      3
11.1537571358252D0,22.3075142716503D0,22.3075142716503D0,              3P      4
33.4612714074755D0,33.4612714074755D0,44.6150285433007D0,              3P      5
44.6150285433007D0,44.6150285433007D0,1.0D0,1.0D0,                     3P      6
.707106781186548D0,.707106781186548D0,1.0D0,1.0D0,                     3P      7
.707106781186548D0,.707106781186548D0,1.0D0,1.0D0,                     3P      8
.707106781186548D0,.707106781186548D0,1.0D0,1.0D0,                     3P      9
.707106781186548D0,.707106781186548D0,1.0D0,1.0D0,-13.5D0,             3P     10
-8.69585237872714D-16,-7.10070232885231D0,-14.5D0,                     3P     11
-8.69585237872714D-16,-7.10070232885231D0,-13.5D0,                     3P     12
-7.10070232885231D0,-7.1007023288523D0,-14.5D0,                        3P     13
-7.10070232885231D0,-7.1007023288523D0,-13.5D0,                        3P     14
-7.10070232885231D0,8.69585237872714D-16,-14.5D0,                      3P     15
-7.10070232885231D0,8.69585237872714D-16,-13.5D0,                      3P     16
-7.1007023288523D0,7.10070232885231D0,-14.5D0,                         3P     17
-7.1007023288523D0,7.10070232885231D0,-13.5D0,                         3P     18
8.69585237872714D-16,7.10070232885231D0,-14.5D0,                       3P     19
8.69585237872714D-16,7.10070232885231D0,-13.5D0,                       3P     20
7.10070232885231D0,7.1007023288523D0,-14.5D0,7.10070232885231D0,       3P     21
7.1007023288523D0,-13.5D0,7.10070232885231D0,                          3P     22
-8.69585237872714D-16,-14.5D0,7.10070232885231D0,                      3P     23
-8.69585237872714D-16,-13.5D0,7.1007023288523D0,                       3P     24
-7.10070232885231D0,-14.5D0,7.1007023288523D0,                         3P     25
-7.10070232885231D0,-13.5D0,-8.69585237872714D-16,                     3P     26
-7.10070232885231D0,-14.5D0,-8.69585237872714D-16,                     3P     27
-7.10070232885231D0,0.0D0,.140831139468655D0,0.0D0,                    3P     28
44.6150285433007D0;                                                    3P     29
504,18,9,7,1,7,1,13,7,2,7,2,23,7,3,7,3,31,7,4,7,4,35,7,5,7,5,43,       5P     30
7,6,7,6,63,7,7,7,7,71,7,8,7,8,81,7,9,7,9,91,7,10,7,10,95,7,11,7,       5P     31
11,105,7,12,7,12,113,7,13,7,13,117,7,14,7,14,125,7,15,7,15,145,        5P     32
7,16,7,16,153,7,17,7,17,163,7,18,7,18;                                 5P     33
502,18,-13.5D0,8.69585237872714D-16,-7.10070232885231D0,-14.5D0,       7P     34
8.69585237872714D-16,-7.10070232885231D0,-13.5D0,                      7P     35
6.12323399573677D-16,-5.0D0,-14.5D0,0.0D0,8.5D0,-13.5D0,               7P     36
-2.32682891837997D-15,9.5D0,-11.0D0,0.0D0,9.5D0,-11.0D0,0.0D0,         7P     37
8.5D0,-9.7D0,0.0D0,8.5D0,-9.7D0,0.0D0,9.5D0,13.5D0,                    7P     38
8.69585237872714D-16,-7.10070232885231D0,14.5D0,                       7P     39
8.69585237872714D-16,-7.10070232885231D0,13.5D0,                       7P     40
6.12323399573677D-16,-5.0D0,14.5D0,0.0D0,8.5D0,13.5D0,                 7P     41
-2.32682891837997D-15,9.5D0,11.0D0,0.0D0,9.5D0,11.0D0,0.0D0,           7P     42
8.5D0,9.7D0,0.0D0,8.5D0,9.7D0,0.0D0,9.5D0;                             7P     43
126,8,2,1,1,0,0,0.0D0,0.0D0,0.0D0,.25D0,.25D0,.5D0,.5D0,.75D0,         9P     44
.75D0,1.0D0,1.0D0,1.0D0,1.0D0,.707106781186548D0,1.0D0,                9P     45
.707106781186548D0,1.0D0,.707106781186548D0,1.0D0,                     9P     46
.707106781186548D0,1.0D0,-13.5D0,0.0D0,-7.10070232885231D0,            9P     47
-13.5D0,-7.10070232885231D0,-7.10070232885231D0,-13.5D0,               9P     48
-7.10070232885231D0,0.0D0,-13.5D0,-7.10070232885231D0,                 9P     49
7.10070232885231D0,-13.5D0,0.0D0,7.10070232885231D0,-13.5D0,           9P     50
7.10070232885231D0,7.10070232885231D0,-13.5D0,                         9P     51
7.10070232885231D0,0.0D0,-13.5D0,7.10070232885231D0,                   9P     52
-7.10070232885231D0,-13.5D0,0.0D0,-7.10070232885231D0,0.0D0,           9P     53
1.0D0,-1.0D0,0.0D0,0.0D0;                                              9P     54
508,1,0,5,1,0,0;                                                      11P     55
126,8,2,1,1,0,0,0.0D0,0.0D0,0.0D0,.25D0,.25D0,.5D0,.5D0,.75D0,        13P     56
.75D0,1.0D0,1.0D0,1.0D0,1.0D0,.707106781186548D0,1.0D0,               13P     57
.707106781186548D0,1.0D0,.707106781186548D0,1.0D0,                    13P     58
.707106781186548D0,1.0D0,-14.5D0,0.0D0,-7.10070232885231D0,           13P     59
-14.5D0,-7.10070232885231D0,-7.10070232885231D0,-14.5D0,              13P     60
-7.10070232885231D0,0.0D0,-14.5D0,-7.10070232885231D0,                13P     61
7.10070232885231D0,-14.5D0,0.0D0,7.10070232885231D0,-14.5D0,          13P     62
7.10070232885231D0,7.10070232885231D0,-14.5D0,                        13P     63
7.10070232885231D0,0.0D0,-14.5D0,7.10070232885231D0,                  13P     64
-7.10070232885231D0,-14.5D0,0.0D0,-7.10070232885231D0,0.0D0,          13P     65
1.0D0,-1.0D0,0.0D0,0.0D0;                                             13P     66
508,1,0,5,2,1,0;                                                      15P     67
510,3,2,1,11,15;                                                      17P     68
128,1,1,1,1,0,0,1,0,0,0.0D0,0.0D0,14.2014046577046D0,                 19P     69
14.2014046577046D0,0.0D0,0.0D0,14.2014046577046D0,                    19P     70
14.2014046577046D0,1.0D0,1.0D0,1.0D0,1.0D0,-13.5D0,                   19P     71
-7.10070232885231D0,-7.10070232885231D0,-13.5D0,                      19P     72
-7.10070232885231D0,7.10070232885231D0,-13.5D0,                       19P     73
7.10070232885231D0,-7.10070232885231D0,-13.5D0,                       19P     74
7.10070232885231D0,7.10070232885231D0,0.0D0,14.2014046577046D0,       19P     75
0.0D0,14.2014046577046D0;                                             19P     76
508,1,0,5,1,1,0;                                                      21P     77
126,8,2,1,1,0,0,0.0D0,0.0D0,0.0D0,.25D0,.25D0,.5D0,.5D0,.75D0,        23P     78
.75D0,1.0D0,1.0D0,1.0D0,1.0D0,.707106781186547D0,1.0D0,               23P     79
.707106781186547D0,1.0D0,.707106781186547D0,1.0D0,                    23P     80
.707106781186547D0,1.0D0,-13.5D0,0.0D0,-5.0D0,-13.5D0,5.0D0,          23P     81
-5.0D0,-13.5D0,5.0D0,0.0D0,-13.5D0,5.0D0,5.0D0,-13.5D0,0.0D0,         23P     82
5.0D0,-13.5D0,-5.0D0,5.0D0,-13.5D0,-5.0D0,0.0D0,-13.5D0,-5.0D0,       23P     83
-5.0D0,-13.5D0,0.0D0,-5.0D0,0.0D0,1.0D0,1.0D0,0.0D0,0.0D0;            23P     84
508,1,0,5,3,1,0;                                                      25P     85
510,19,2,1,21,25;                                                     27P     86
128,4,8,2,2,0,1,0,0,0,-3.14159265358979D0,-3.14159265358979D0,        29P     87
-3.14159265358979D0,-1.5707963267949D0,-1.5707963267949D0,0.0D0,      29P     88
0.0D0,0.0D0,0.0D0,0.0D0,0.0D0,1.5707963267949D0,                      29P     89
1.5707963267949D0,3.14159265358979D0,3.14159265358979D0,              29P     90
4.71238898038469D0,4.71238898038469D0,6.28318530717959D0,             29P     91
6.28318530717959D0,6.28318530717959D0,1.0D0,.70710678118655D0,        29P     92
1.0D0,.70710678118655D0,1.0D0,.707106781186548D0,                     29P     93
.500000000000002D0,.707106781186548D0,.500000000000002D0,             29P     94
.707106781186548D0,1.0D0,.70710678118655D0,1.0D0,                     29P     95
.70710678118655D0,1.0D0,.707106781186548D0,.500000000000002D0,        29P     96
.707106781186548D0,.500000000000002D0,.707106781186548D0,1.0D0,       29P     97
.70710678118655D0,1.0D0,.70710678118655D0,1.0D0,                      29P     98
.707106781186548D0,.500000000000002D0,.707106781186548D0,             29P     99
.500000000000002D0,.707106781186548D0,1.0D0,.70710678118655D0,        29P    100
1.0D0,.70710678118655D0,1.0D0,.707106781186548D0,                     29P    101
.500000000000002D0,.707106781186548D0,.500000000000002D0,             29P    102
.707106781186548D0,1.0D0,.70710678118655D0,1.0D0,                     29P    103
.70710678118655D0,1.0D0,-13.5D0,-9.18485099360515D-16,-7.5D0,         29P    104
-14.5D0,-9.18485099360515D-16,-7.5D0,-14.5D0,                         29P    105
-1.04094977927525D-15,-8.5D0,-14.5D0,-1.16341445918999D-15,           29P    106
-9.5D0,-13.5D0,-1.16341445918999D-15,-9.5D0,-13.5D0,-7.5D0,           29P    107
-7.5D0,-14.5D0,-7.5D0,-7.5D0,-14.5D0,-8.5D0,-8.5D0,-14.5D0,           29P    108
-9.5D0,-9.5D0,-13.5D0,-9.5D0,-9.5D0,-13.5D0,-7.5D0,                   29P    109
9.18485099360515D-16,-14.5D0,-7.5D0,9.18485099360515D-16,             29P    110
-14.5D0,-8.5D0,1.04094977927525D-15,-14.5D0,-9.5D0,                   29P    111
1.16341445918999D-15,-13.5D0,-9.5D0,1.16341445918999D-15,             29P    112
-13.5D0,-7.5D0,7.5D0,-14.5D0,-7.5D0,7.5D0,-14.5D0,-8.5D0,8.5D0,       29P    113
-14.5D0,-9.5D0,9.5D0,-13.5D0,-9.5D0,9.5D0,-13.5D0,                    29P    114
9.18485099360515D-16,7.5D0,-14.5D0,9.18485099360515D-16,7.5D0,        29P    115
-14.5D0,1.04094977927525D-15,8.5D0,-14.5D0,1.16341445918999D-15,      29P    116
9.5D0,-13.5D0,1.16341445918999D-15,9.5D0,-13.5D0,7.5D0,7.5D0,         29P    117
-14.5D0,7.5D0,7.5D0,-14.5D0,8.5D0,8.5D0,-14.5D0,9.5D0,9.5D0,          29P    118
-13.5D0,9.5D0,9.5D0,-13.5D0,7.5D0,-9.18485099360515D-16,-14.5D0,      29P    119
7.5D0,-9.18485099360515D-16,-14.5D0,8.5D0,-1.04094977927525D-15,      29P    120
-14.5D0,9.5D0,-1.16341445918999D-15,-13.5D0,9.5D0,                    29P    121
-1.16341445918999D-15,-13.5D0,7.5D0,-7.5D0,-14.5D0,7.5D0,-7.5D0,      29P    122
-14.5D0,8.5D0,-8.5D0,-14.5D0,9.5D0,-9.5D0,-13.5D0,9.5D0,-9.5D0,       29P    123
-13.5D0,-9.18485099360515D-16,-7.5D0,-14.5D0,                         29P    124
-9.18485099360515D-16,-7.5D0,-14.5D0,-1.04094977927525D-15,           29P    125
-8.5D0,-14.5D0,-1.16341445918999D-15,-9.5D0,-13.5D0,                  29P    126
-1.16341445918999D-15,-9.5D0,-3.14159265358979D0,0.0D0,0.0D0,         29P    127
6.28318530717959D0;                                                   29P    128
126,8,2,1,1,0,0,0.0D0,0.0D0,0.0D0,.25D0,.25D0,.5D0,.5D0,.75D0,        31P    129
.75D0,1.0D0,1.0D0,1.0D0,1.0D0,.707106781186548D0,1.0D0,               31P    130
.707106781186548D0,1.0D0,.707106781186548D0,1.0D0,                    31P    131
.707106781186548D0,1.0D0,-14.5D0,0.0D0,8.5D0,-14.5D0,8.5D0,           31P    132
8.5D0,-14.5D0,8.5D0,0.0D0,-14.5D0,8.5D0,-8.5D0,-14.5D0,0.0D0,         31P    133
-8.5D0,-14.5D0,-8.5D0,-8.5D0,-14.5D0,-8.5D0,0.0D0,-14.5D0,            31P    134
-8.5D0,8.5D0,-14.5D0,0.0D0,8.5D0,0.0D0,1.0D0,-1.0D0,0.0D0,0.0D0;      31P    135
508,1,0,5,4,0,0;                                                      33P    136
126,8,2,1,1,0,0,0.0D0,0.0D0,0.0D0,.25D0,.25D0,.5D0,.5D0,.75D0,        35P    137
.75D0,1.0D0,1.0D0,1.0D0,1.0D0,.707106781186547D0,1.0D0,               35P    138
.707106781186547D0,1.0D0,.707106781186547D0,1.0D0,                    35P    139
.707106781186547D0,1.0D0,-13.5D0,0.0D0,9.5D0,-13.5D0,-9.5D0,          35P    140
9.5D0,-13.5D0,-9.5D0,0.0D0,-13.5D0,-9.5D0,-9.5D0,-13.5D0,0.0D0,       35P    141
-9.5D0,-13.5D0,9.5D0,-9.5D0,-13.5D0,9.5D0,0.0D0,-13.5D0,9.5D0,        35P    142
9.5D0,-13.5D0,0.0D0,9.5D0,0.0D0,1.0D0,1.0D0,0.0D0,0.0D0;              35P    143
508,1,0,5,5,0,0;                                                      37P    144
510,29,2,1,33,37;                                                     39P    145
128,1,8,1,2,0,1,0,0,0,-7.89473684210524D-2,-7.89473684210524D-2,      41P    146
.18421052631579D0,.18421052631579D0,0.0D0,0.0D0,0.0D0,                41P    147
14.9225651045515D0,14.9225651045515D0,29.845130209103D0,              41P    148
29.845130209103D0,44.7676953136545D0,44.7676953136545D0,              41P    149
59.6902604182061D0,59.6902604182061D0,59.6902604182061D0,1.0D0,       41P    150
1.0D0,.707106781186548D0,.707106781186548D0,1.0D0,1.0D0,              41P    151
.707106781186548D0,.707106781186548D0,1.0D0,1.0D0,                    41P    152
.707106781186548D0,.707106781186548D0,1.0D0,1.0D0,                    41P    153
.707106781186548D0,.707106781186548D0,1.0D0,1.0D0,-13.5D0,            41P    154
-1.16341445918999D-15,-9.5D0,-11.0D0,-1.16341445918999D-15,           41P    155
-9.5D0,-13.5D0,-9.5D0,-9.5D0,-11.0D0,-9.5D0,-9.5D0,-13.5D0,           41P    156
-9.5D0,1.16341445918999D-15,-11.0D0,-9.5D0,1.16341445918999D-15,      41P    157
-13.5D0,-9.5D0,9.5D0,-11.0D0,-9.5D0,9.5D0,-13.5D0,                    41P    158
1.16341445918999D-15,9.5D0,-11.0D0,1.16341445918999D-15,9.5D0,        41P    159
-13.5D0,9.5D0,9.5D0,-11.0D0,9.5D0,9.5D0,-13.5D0,9.5D0,                41P    160
-1.16341445918999D-15,-11.0D0,9.5D0,-1.16341445918999D-15,            41P    161
-13.5D0,9.5D0,-9.5D0,-11.0D0,9.5D0,-9.5D0,-13.5D0,                    41P    162
-1.16341445918999D-15,-9.5D0,-11.0D0,-1.16341445918999D-15,           41P    163
-9.5D0,-7.89473684210524D-2,.18421052631579D0,0.0D0,                  41P    164
59.6902604182061D0;                                                   41P    165
126,8,2,1,1,0,0,0.0D0,0.0D0,0.0D0,.25D0,.25D0,.5D0,.5D0,.75D0,        43P    166
.75D0,1.0D0,1.0D0,1.0D0,1.0D0,.707106781186547D0,1.0D0,               43P    167
.707106781186547D0,1.0D0,.707106781186547D0,1.0D0,                    43P    168
.707106781186547D0,1.0D0,-11.0D0,0.0D0,9.5D0,-11.0D0,9.5D0,           43P    169
9.5D0,-11.0D0,9.5D0,0.0D0,-11.0D0,9.5D0,-9.5D0,-11.0D0,0.0D0,         43P    170
-9.5D0,-11.0D0,-9.5D0,-9.5D0,-11.0D0,-9.5D0,0.0D0,-11.0D0,            43P    171
-9.5D0,9.5D0,-11.0D0,0.0D0,9.5D0,0.0D0,1.0D0,-1.0D0,0.0D0,0.0D0;      43P    172
508,1,0,5,6,1,0;                                                      45P    173
508,1,0,5,5,1,0;                                                      47P    174
510,41,2,1,45,47;                                                     49P    175
128,1,1,1,1,0,0,1,0,0,0.0D0,0.0D0,17.0D0,17.0D0,0.0D0,0.0D0,          51P    176
17.0D0,17.0D0,1.0D0,1.0D0,1.0D0,1.0D0,-14.5D0,-8.5D0,-8.5D0,          51P    177
-14.5D0,-8.5D0,8.5D0,-14.5D0,8.5D0,-8.5D0,-14.5D0,8.5D0,8.5D0,        51P    178
0.0D0,17.0D0,0.0D0,17.0D0;                                            51P    179
508,1,0,5,4,1,0;                                                      53P    180
508,1,0,5,2,0,0;                                                      55P    181
510,51,2,1,53,55;                                                     57P    182
128,1,1,1,1,0,0,1,0,0,0.0D0,0.0D0,19.0D0,19.0D0,0.0D0,0.0D0,          59P    183
19.0D0,19.0D0,1.0D0,1.0D0,1.0D0,1.0D0,-11.0D0,-9.5D0,9.5D0,           59P    184
-11.0D0,-9.5D0,-9.5D0,-11.0D0,9.5D0,9.5D0,-11.0D0,9.5D0,-9.5D0,       59P    185
0.0D0,19.0D0,0.0D0,19.0D0;                                            59P    186
508,1,0,5,6,0,0;                                                      61P    187
126,8,2,1,1,0,0,0.0D0,0.0D0,0.0D0,.25D0,.25D0,.5D0,.5D0,.75D0,        63P    188
.75D0,1.0D0,1.0D0,1.0D0,1.0D0,.707106781186548D0,1.0D0,               63P    189
.707106781186548D0,1.0D0,.707106781186548D0,1.0D0,                    63P    190
.707106781186548D0,1.0D0,-11.0D0,0.0D0,8.5D0,-11.0D0,8.5D0,           63P    191
8.5D0,-11.0D0,8.5D0,0.0D0,-11.0D0,8.5D0,-8.5D0,-11.0D0,0.0D0,         63P    192
-8.5D0,-11.0D0,-8.5D0,-8.5D0,-11.0D0,-8.5D0,0.0D0,-11.0D0,            63P    193
-8.5D0,8.5D0,-11.0D0,0.0D0,8.5D0,0.0D0,1.0D0,-1.0D0,0.0D0,0.0D0;      63P    194
508,1,0,5,7,1,0;                                                      65P    195
510,59,2,1,61,65;                                                     67P    196
128,1,8,1,2,0,1,0,0,0,-.076470588235294D0,-.076470588235294D0,        69P    197
7.64705882352942D-2,7.64705882352942D-2,0.0D0,0.0D0,0.0D0,            69P    198
13.3517687777566D0,13.3517687777566D0,26.7035375555132D0,             69P    199
26.7035375555132D0,40.0553063332699D0,40.0553063332699D0,             69P    200
53.4070751110265D0,53.4070751110265D0,53.4070751110265D0,1.0D0,       69P    201
1.0D0,.707106781186548D0,.707106781186548D0,1.0D0,1.0D0,              69P    202
.707106781186548D0,.707106781186548D0,1.0D0,1.0D0,                    69P    203
.707106781186548D0,.707106781186548D0,1.0D0,1.0D0,                    69P    204
.707106781186548D0,.707106781186548D0,1.0D0,1.0D0,-11.0D0,            69P    205
-1.04094977927525D-15,-8.5D0,-9.7D0,-1.04094977927525D-15,            69P    206
-8.5D0,-11.0D0,-8.5D0,-8.49999999999999D0,-9.7D0,-8.5D0,              69P    207
-8.49999999999999D0,-11.0D0,-8.5D0,1.04094977927525D-15,-9.7D0,       69P    208
-8.5D0,1.04094977927525D-15,-11.0D0,-8.49999999999999D0,8.5D0,        69P    209
-9.7D0,-8.49999999999999D0,8.5D0,-11.0D0,1.04094977927525D-15,        69P    210
8.5D0,-9.7D0,1.04094977927525D-15,8.5D0,-11.0D0,8.5D0,                69P    211
8.49999999999999D0,-9.7D0,8.5D0,8.49999999999999D0,-11.0D0,           69P    212
8.5D0,-1.04094977927525D-15,-9.7D0,8.5D0,-1.04094977927525D-15,       69P    213
-11.0D0,8.49999999999999D0,-8.5D0,-9.7D0,8.49999999999999D0,          69P    214
-8.5D0,-11.0D0,-1.04094977927525D-15,-8.5D0,-9.7D0,                   69P    215
-1.04094977927525D-15,-8.5D0,-.076470588235294D0,                     69P    216
7.64705882352942D-2,0.0D0,53.4070751110265D0;                         69P    217
126,8,2,1,1,0,0,0.0D0,0.0D0,0.0D0,.25D0,.25D0,.5D0,.5D0,.75D0,        71P    218
.75D0,1.0D0,1.0D0,1.0D0,1.0D0,.707106781186548D0,1.0D0,               71P    219
.707106781186548D0,1.0D0,.707106781186548D0,1.0D0,                    71P    220
.707106781186548D0,1.0D0,-9.7D0,0.0D0,8.5D0,-9.7D0,8.5D0,8.5D0,       71P    221
-9.7D0,8.5D0,0.0D0,-9.7D0,8.5D0,-8.5D0,-9.7D0,0.0D0,-8.5D0,           71P    222
-9.7D0,-8.5D0,-8.5D0,-9.7D0,-8.5D0,0.0D0,-9.7D0,-8.5D0,8.5D0,         71P    223
-9.7D0,0.0D0,8.5D0,0.0D0,1.0D0,-1.0D0,0.0D0,0.0D0;                    71P    224
508,1,0,5,8,1,0;                                                      73P    225
508,1,0,5,7,0,0;                                                      75P    226
510,69,2,1,73,75;                                                     77P    227
128,1,1,1,1,0,0,1,0,0,0.0D0,0.0D0,19.0D0,19.0D0,0.0D0,0.0D0,          79P    228
19.0D0,19.0D0,1.0D0,1.0D0,1.0D0,1.0D0,-9.7D0,-9.5D0,-9.5D0,           79P    229
-9.7D0,-9.5D0,9.5D0,-9.7D0,9.5D0,-9.5D0,-9.7D0,9.5D0,9.5D0,           79P    230
0.0D0,19.0D0,0.0D0,19.0D0;                                            79P    231
126,8,2,1,1,0,0,0.0D0,0.0D0,0.0D0,.25D0,.25D0,.5D0,.5D0,.75D0,        81P    232
.75D0,1.0D0,1.0D0,1.0D0,1.0D0,.707106781186547D0,1.0D0,               81P    233
.707106781186547D0,1.0D0,.707106781186547D0,1.0D0,                    81P    234
.707106781186547D0,1.0D0,-9.7D0,0.0D0,9.5D0,-9.7D0,9.5D0,9.5D0,       81P    235
-9.7D0,9.5D0,0.0D0,-9.7D0,9.5D0,-9.5D0,-9.7D0,0.0D0,-9.5D0,           81P    236
-9.7D0,-9.5D0,-9.5D0,-9.7D0,-9.5D0,0.0D0,-9.7D0,-9.5D0,9.5D0,         81P    237
-9.7D0,0.0D0,9.5D0,0.0D0,1.0D0,-1.0D0,0.0D0,0.0D0;                    81P    238
508,1,0,5,9,1,0;                                                      83P    239
508,1,0,5,8,0,0;                                                      85P    240
510,79,2,1,83,85;                                                     87P    241
128,1,8,1,2,0,1,0,0,0,-.140831139468655D0,-.140831139468655D0,        89P    242
0.0D0,0.0D0,0.0D0,0.0D0,0.0D0,11.1537571358252D0,                     89P    243
11.1537571358252D0,22.3075142716503D0,22.3075142716503D0,             89P    244
33.4612714074755D0,33.4612714074755D0,44.6150285433007D0,             89P    245
44.6150285433007D0,44.6150285433007D0,1.0D0,1.0D0,                    89P    246
.707106781186548D0,.707106781186548D0,1.0D0,1.0D0,                    89P    247
.707106781186548D0,.707106781186548D0,1.0D0,1.0D0,                    89P    248
.707106781186548D0,.707106781186548D0,1.0D0,1.0D0,                    89P    249
.707106781186548D0,.707106781186548D0,1.0D0,1.0D0,14.5D0,             89P    250
-8.69585237872714D-16,-7.10070232885231D0,13.5D0,                     89P    251
-8.69585237872714D-16,-7.10070232885231D0,14.5D0,                     89P    252
-7.10070232885231D0,-7.1007023288523D0,13.5D0,                        89P    253
-7.10070232885231D0,-7.1007023288523D0,14.5D0,                        89P    254
-7.10070232885231D0,8.69585237872714D-16,13.5D0,                      89P    255
-7.10070232885231D0,8.69585237872714D-16,14.5D0,                      89P    256
-7.1007023288523D0,7.10070232885231D0,13.5D0,-7.1007023288523D0,      89P    257
7.10070232885231D0,14.5D0,8.69585237872714D-16,                       89P    258
7.10070232885231D0,13.5D0,8.69585237872714D-16,                       89P    259
7.10070232885231D0,14.5D0,7.10070232885231D0,7.1007023288523D0,       89P    260
13.5D0,7.10070232885231D0,7.1007023288523D0,14.5D0,                   89P    261
7.10070232885231D0,-8.69585237872714D-16,13.5D0,                      89P    262
7.10070232885231D0,-8.69585237872714D-16,14.5D0,                      89P    263
7.1007023288523D0,-7.10070232885231D0,13.5D0,7.1007023288523D0,       89P    264
-7.10070232885231D0,14.5D0,-8.69585237872714D-16,                     89P    265
-7.10070232885231D0,13.5D0,-8.69585237872714D-16,                     89P    266
-7.10070232885231D0,-.140831139468655D0,0.0D0,0.0D0,                  89P    267
44.6150285433007D0;                                                   89P    268
126,8,2,1,1,0,0,0.0D0,0.0D0,0.0D0,.25D0,.25D0,.5D0,.5D0,.75D0,        91P    269
.75D0,1.0D0,1.0D0,1.0D0,1.0D0,.707106781186548D0,1.0D0,               91P    270
.707106781186548D0,1.0D0,.707106781186548D0,1.0D0,                    91P    271
.707106781186548D0,1.0D0,13.5D0,0.0D0,-7.10070232885231D0,            91P    272
13.5D0,-7.10070232885231D0,-7.10070232885231D0,13.5D0,                91P    273
-7.10070232885231D0,0.0D0,13.5D0,-7.10070232885231D0,                 91P    274
7.10070232885231D0,13.5D0,0.0D0,7.10070232885231D0,13.5D0,            91P    275
7.10070232885231D0,7.10070232885231D0,13.5D0,7.10070232885231D0,      91P    276
0.0D0,13.5D0,7.10070232885231D0,-7.10070232885231D0,13.5D0,           91P    277
0.0D0,-7.10070232885231D0,0.0D0,1.0D0,-1.0D0,0.0D0,0.0D0;             91P    278
508,1,0,5,10,1,0;                                                     93P    279
126,8,2,1,1,0,0,0.0D0,0.0D0,0.0D0,.25D0,.25D0,.5D0,.5D0,.75D0,        95P    280
.75D0,1.0D0,1.0D0,1.0D0,1.0D0,.707106781186548D0,1.0D0,               95P    281
.707106781186548D0,1.0D0,.707106781186548D0,1.0D0,                    95P    282
.707106781186548D0,1.0D0,14.5D0,0.0D0,-7.10070232885231D0,            95P    283
14.5D0,-7.10070232885231D0,-7.10070232885231D0,14.5D0,                95P    284
-7.10070232885231D0,0.0D0,14.5D0,-7.10070232885231D0,                 95P    285
7.10070232885231D0,14.5D0,0.0D0,7.10070232885231D0,14.5D0,            95P    286
7.10070232885231D0,7.10070232885231D0,14.5D0,7.10070232885231D0,      95P    287
0.0D0,14.5D0,7.10070232885231D0,-7.10070232885231D0,14.5D0,           95P    288
0.0D0,-7.10070232885231D0,0.0D0,1.0D0,-1.0D0,0.0D0,0.0D0;             95P    289
508,1,0,5,11,0,0;                                                     97P    290
510,89,2,1,93,97;                                                     99P    291
128,1,1,1,1,0,0,1,0,0,0.0D0,0.0D0,14.2014046577046D0,                101P    292
14.2014046577046D0,0.0D0,0.0D0,14.2014046577046D0,                   101P    293
14.2014046577046D0,1.0D0,1.0D0,1.0D0,1.0D0,13.5D0,                   101P    294
-7.10070232885231D0,7.10070232885231D0,13.5D0,                       101P    295
-7.10070232885231D0,-7.10070232885231D0,13.5D0,                      101P    296
7.10070232885231D0,7.10070232885231D0,13.5D0,7.10070232885231D0,     101P    297
-7.10070232885231D0,0.0D0,14.2014046577046D0,0.0D0,                  101P    298
14.2014046577046D0;                                                  101P    299
508,1,0,5,10,0,0;                                                    103P    300
126,8,2,1,1,0,0,0.0D0,0.0D0,0.0D0,.25D0,.25D0,.5D0,.5D0,.75D0,       105P    301
.75D0,1.0D0,1.0D0,1.0D0,1.0D0,.707106781186547D0,1.0D0,              105P    302
.707106781186547D0,1.0D0,.707106781186547D0,1.0D0,                   105P    303
.707106781186547D0,1.0D0,13.5D0,0.0D0,-5.0D0,13.5D0,5.0D0,           105P    304
-5.0D0,13.5D0,5.0D0,0.0D0,13.5D0,5.0D0,5.0D0,13.5D0,0.0D0,5.0D0,     105P    305
13.5D0,-5.0D0,5.0D0,13.5D0,-5.0D0,0.0D0,13.5D0,-5.0D0,-5.0D0,        105P    306
13.5D0,0.0D0,-5.0D0,0.0D0,1.0D0,1.0D0,0.0D0,0.0D0;                   105P    307
508,1,0,5,12,0,0;                                                    107P    308
510,101,2,1,103,107;                                                 109P    309
128,4,8,2,2,0,1,0,0,0,-3.14159265358979D0,-3.14159265358979D0,       111P    310
-3.14159265358979D0,-1.5707963267949D0,-1.5707963267949D0,0.0D0,     111P    311
0.0D0,0.0D0,0.0D0,0.0D0,0.0D0,1.5707963267949D0,                     111P    312
1.5707963267949D0,3.14159265358979D0,3.14159265358979D0,             111P    313
4.71238898038469D0,4.71238898038469D0,6.28318530717959D0,            111P    314
6.28318530717959D0,6.28318530717959D0,1.0D0,.70710678118655D0,       111P    315
1.0D0,.70710678118655D0,1.0D0,.707106781186548D0,                    111P    316
.500000000000002D0,.707106781186548D0,.500000000000002D0,            111P    317
.707106781186548D0,1.0D0,.70710678118655D0,1.0D0,                    111P    318
.70710678118655D0,1.0D0,.707106781186548D0,.500000000000002D0,       111P    319
.707106781186548D0,.500000000000002D0,.707106781186548D0,1.0D0,      111P    320
.70710678118655D0,1.0D0,.70710678118655D0,1.0D0,                     111P    321
.707106781186548D0,.500000000000002D0,.707106781186548D0,            111P    322
.500000000000002D0,.707106781186548D0,1.0D0,.70710678118655D0,       111P    323
1.0D0,.70710678118655D0,1.0D0,.707106781186548D0,                    111P    324
.500000000000002D0,.707106781186548D0,.500000000000002D0,            111P    325
.707106781186548D0,1.0D0,.70710678118655D0,1.0D0,                    111P    326
.70710678118655D0,1.0D0,13.5D0,9.18485099360515D-16,-7.5D0,          111P    327
14.5D0,9.18485099360515D-16,-7.5D0,14.5D0,1.04094977927525D-15,      111P    328
-8.5D0,14.5D0,1.16341445918999D-15,-9.5D0,13.5D0,                    111P    329
1.16341445918999D-15,-9.5D0,13.5D0,7.5D0,-7.5D0,14.5D0,7.5D0,        111P    330
-7.5D0,14.5D0,8.5D0,-8.5D0,14.5D0,9.5D0,-9.5D0,13.5D0,9.5D0,         111P    331
-9.5D0,13.5D0,7.5D0,9.18485099360515D-16,14.5D0,7.5D0,               111P    332
9.18485099360515D-16,14.5D0,8.5D0,1.04094977927525D-15,14.5D0,       111P    333
9.5D0,1.16341445918999D-15,13.5D0,9.5D0,1.16341445918999D-15,        111P    334
13.5D0,7.5D0,7.5D0,14.5D0,7.5D0,7.5D0,14.5D0,8.5D0,8.5D0,14.5D0,     111P    335
9.5D0,9.5D0,13.5D0,9.5D0,9.5D0,13.5D0,-9.18485099360515D-16,         111P    336
7.5D0,14.5D0,-9.18485099360515D-16,7.5D0,14.5D0,                     111P    337
-1.04094977927525D-15,8.5D0,14.5D0,-1.16341445918999D-15,9.5D0,      111P    338
13.5D0,-1.16341445918999D-15,9.5D0,13.5D0,-7.5D0,7.5D0,14.5D0,       111P    339
-7.5D0,7.5D0,14.5D0,-8.5D0,8.5D0,14.5D0,-9.5D0,9.5D0,13.5D0,         111P    340
-9.5D0,9.5D0,13.5D0,-7.5D0,-9.18485099360515D-16,14.5D0,-7.5D0,      111P    341
-9.18485099360515D-16,14.5D0,-8.5D0,-1.04094977927525D-15,           111P    342
14.5D0,-9.5D0,-1.16341445918999D-15,13.5D0,-9.5D0,                   111P    343
-1.16341445918999D-15,13.5D0,-7.5D0,-7.5D0,14.5D0,-7.5D0,-7.5D0,     111P    344
14.5D0,-8.5D0,-8.5D0,14.5D0,-9.5D0,-9.5D0,13.5D0,-9.5D0,-9.5D0,      111P    345
13.5D0,9.18485099360515D-16,-7.5D0,14.5D0,9.18485099360515D-16,      111P    346
-7.5D0,14.5D0,1.04094977927525D-15,-8.5D0,14.5D0,                    111P    347
1.16341445918999D-15,-9.5D0,13.5D0,1.16341445918999D-15,-9.5D0,      111P    348
-3.14159265358979D0,0.0D0,0.0D0,6.28318530717959D0;                  111P    349
126,8,2,1,1,0,0,0.0D0,0.0D0,0.0D0,.25D0,.25D0,.5D0,.5D0,.75D0,       113P    350
.75D0,1.0D0,1.0D0,1.0D0,1.0D0,.707106781186548D0,1.0D0,              113P    351
.707106781186548D0,1.0D0,.707106781186548D0,1.0D0,                   113P    352
.707106781186548D0,1.0D0,14.5D0,0.0D0,8.5D0,14.5D0,8.5D0,8.5D0,      113P    353
14.5D0,8.5D0,0.0D0,14.5D0,8.5D0,-8.5D0,14.5D0,0.0D0,-8.5D0,          113P    354
14.5D0,-8.5D0,-8.5D0,14.5D0,-8.5D0,0.0D0,14.5D0,-8.5D0,8.5D0,        113P    355
14.5D0,0.0D0,8.5D0,0.0D0,1.0D0,-1.0D0,0.0D0,0.0D0;                   113P    356
508,1,0,5,13,1,0;                                                    115P    357
126,8,2,1,1,0,0,0.0D0,0.0D0,0.0D0,.25D0,.25D0,.5D0,.5D0,.75D0,       117P    358
.75D0,1.0D0,1.0D0,1.0D0,1.0D0,.707106781186547D0,1.0D0,              117P    359
.707106781186547D0,1.0D0,.707106781186547D0,1.0D0,                   117P    360
.707106781186547D0,1.0D0,13.5D0,0.0D0,9.5D0,13.5D0,-9.5D0,9.5D0,     117P    361
13.5D0,-9.5D0,0.0D0,13.5D0,-9.5D0,-9.5D0,13.5D0,0.0D0,-9.5D0,        117P    362
13.5D0,9.5D0,-9.5D0,13.5D0,9.5D0,0.0D0,13.5D0,9.5D0,9.5D0,           117P    363
13.5D0,0.0D0,9.5D0,0.0D0,1.0D0,1.0D0,0.0D0,0.0D0;                    117P    364
508,1,0,5,14,1,0;                                                    119P    365
510,111,2,1,115,119;                                                 121P    366
128,1,8,1,2,0,1,0,0,0,-.18421052631579D0,-.18421052631579D0,         123P    367
7.89473684210524D-2,7.89473684210524D-2,0.0D0,0.0D0,0.0D0,           123P    368
14.9225651045515D0,14.9225651045515D0,29.845130209103D0,             123P    369
29.845130209103D0,44.7676953136545D0,44.7676953136545D0,             123P    370
59.6902604182061D0,59.6902604182061D0,59.6902604182061D0,1.0D0,      123P    371
1.0D0,.707106781186548D0,.707106781186548D0,1.0D0,1.0D0,             123P    372
.707106781186548D0,.707106781186548D0,1.0D0,1.0D0,                   123P    373
.707106781186548D0,.707106781186548D0,1.0D0,1.0D0,                   123P    374
.707106781186548D0,.707106781186548D0,1.0D0,1.0D0,11.0D0,            123P    375
-1.16341445918999D-15,-9.5D0,13.5D0,-1.16341445918999D-15,           123P    376
-9.5D0,11.0D0,-9.5D0,-9.5D0,13.5D0,-9.5D0,-9.5D0,11.0D0,-9.5D0,      123P    377
1.16341445918999D-15,13.5D0,-9.5D0,1.16341445918999D-15,11.0D0,      123P    378
-9.5D0,9.5D0,13.5D0,-9.5D0,9.5D0,11.0D0,1.16341445918999D-15,        123P    379
9.5D0,13.5D0,1.16341445918999D-15,9.5D0,11.0D0,9.5D0,9.5D0,          123P    380
13.5D0,9.5D0,9.5D0,11.0D0,9.5D0,-1.16341445918999D-15,13.5D0,        123P    381
9.5D0,-1.16341445918999D-15,11.0D0,9.5D0,-9.5D0,13.5D0,9.5D0,        123P    382
-9.5D0,11.0D0,-1.16341445918999D-15,-9.5D0,13.5D0,                   123P    383
-1.16341445918999D-15,-9.5D0,-.18421052631579D0,                     123P    384
7.89473684210524D-2,0.0D0,59.6902604182061D0;                        123P    385
126,8,2,1,1,0,0,0.0D0,0.0D0,0.0D0,.25D0,.25D0,.5D0,.5D0,.75D0,       125P    386
.75D0,1.0D0,1.0D0,1.0D0,1.0D0,.707106781186547D0,1.0D0,              125P    387
.707106781186547D0,1.0D0,.707106781186547D0,1.0D0,                   125P    388
.707106781186547D0,1.0D0,11.0D0,0.0D0,9.5D0,11.0D0,9.5D0,9.5D0,      125P    389
11.0D0,9.5D0,0.0D0,11.0D0,9.5D0,-9.5D0,11.0D0,0.0D0,-9.5D0,          125P    390
11.0D0,-9.5D0,-9.5D0,11.0D0,-9.5D0,0.0D0,11.0D0,-9.5D0,9.5D0,        125P    391
11.0D0,0.0D0,9.5D0,0.0D0,1.0D0,-1.0D0,0.0D0,0.0D0;                   125P    392
508,1,0,5,15,0,0;                                                    127P    393
508,1,0,5,14,0,0;                                                    129P    394
510,123,2,1,127,129;                                                 131P    395
128,1,1,1,1,0,0,1,0,0,0.0D0,0.0D0,17.0D0,17.0D0,0.0D0,0.0D0,         133P    396
17.0D0,17.0D0,1.0D0,1.0D0,1.0D0,1.0D0,14.5D0,-8.5D0,8.5D0,           133P    397
14.5D0,-8.5D0,-8.5D0,14.5D0,8.5D0,8.5D0,14.5D0,8.5D0,-8.5D0,         133P    398
0.0D0,17.0D0,0.0D0,17.0D0;                                           133P    399
508,1,0,5,13,0,0;                                                    135P    400
508,1,0,5,11,1,0;                                                    137P    401
510,133,2,1,135,137;                                                 139P    402
128,1,1,1,1,0,0,1,0,0,0.0D0,0.0D0,19.0D0,19.0D0,0.0D0,0.0D0,         141P    403
19.0D0,19.0D0,1.0D0,1.0D0,1.0D0,1.0D0,11.0D0,-9.5D0,-9.5D0,          141P    404
11.0D0,-9.5D0,9.5D0,11.0D0,9.5D0,-9.5D0,11.0D0,9.5D0,9.5D0,          141P    405
0.0D0,19.0D0,0.0D0,19.0D0;                                           141P    406
508,1,0,5,15,1,0;                                                    143P    407
126,8,2,1,1,0,0,0.0D0,0.0D0,0.0D0,.25D0,.25D0,.5D0,.5D0,.75D0,       145P    408
.75D0,1.0D0,1.0D0,1.0D0,1.0D0,.707106781186548D0,1.0D0,              145P    409
.707106781186548D0,1.0D0,.707106781186548D0,1.0D0,                   145P    410
.707106781186548D0,1.0D0,11.0D0,0.0D0,8.5D0,11.0D0,8.5D0,8.5D0,      145P    411
11.0D0,8.5D0,0.0D0,11.0D0,8.5D0,-8.5D0,11.0D0,0.0D0,-8.5D0,          145P    412
11.0D0,-8.5D0,-8.5D0,11.0D0,-8.5D0,0.0D0,11.0D0,-8.5D0,8.5D0,        145P    413
11.0D0,0.0D0,8.5D0,0.0D0,1.0D0,-1.0D0,0.0D0,0.0D0;                   145P    414
508,1,0,5,16,0,0;                                                    147P    415
510,141,2,1,143,147;                                                 149P    416
128,1,8,1,2,0,1,0,0,0,-7.64705882352942D-2,-7.64705882352942D-2,     151P    417
.076470588235294D0,.076470588235294D0,0.0D0,0.0D0,0.0D0,             151P    418
13.3517687777566D0,13.3517687777566D0,26.7035375555132D0,            151P    419
26.7035375555132D0,40.0553063332699D0,40.0553063332699D0,            151P    420
53.4070751110265D0,53.4070751110265D0,53.4070751110265D0,1.0D0,      151P    421
1.0D0,.707106781186548D0,.707106781186548D0,1.0D0,1.0D0,             151P    422
.707106781186548D0,.707106781186548D0,1.0D0,1.0D0,                   151P    423
.707106781186548D0,.707106781186548D0,1.0D0,1.0D0,                   151P    424
.707106781186548D0,.707106781186548D0,1.0D0,1.0D0,9.7D0,             151P    425
-1.04094977927525D-15,-8.5D0,11.0D0,-1.04094977927525D-15,           151P    426
-8.5D0,9.7D0,-8.5D0,-8.49999999999999D0,11.0D0,-8.5D0,               151P    427
-8.49999999999999D0,9.7D0,-8.5D0,1.04094977927525D-15,11.0D0,        151P    428
-8.5D0,1.04094977927525D-15,9.7D0,-8.49999999999999D0,8.5D0,         151P    429
11.0D0,-8.49999999999999D0,8.5D0,9.7D0,1.04094977927525D-15,         151P    430
8.5D0,11.0D0,1.04094977927525D-15,8.5D0,9.7D0,8.5D0,                 151P    431
8.49999999999999D0,11.0D0,8.5D0,8.49999999999999D0,9.7D0,8.5D0,      151P    432
-1.04094977927525D-15,11.0D0,8.5D0,-1.04094977927525D-15,9.7D0,      151P    433
8.49999999999999D0,-8.5D0,11.0D0,8.49999999999999D0,-8.5D0,          151P    434
9.7D0,-1.04094977927525D-15,-8.5D0,11.0D0,-1.04094977927525D-15,     151P    435
-8.5D0,-7.64705882352942D-2,.076470588235294D0,0.0D0,                151P    436
53.4070751110265D0;                                                  151P    437
126,8,2,1,1,0,0,0.0D0,0.0D0,0.0D0,.25D0,.25D0,.5D0,.5D0,.75D0,       153P    438
.75D0,1.0D0,1.0D0,1.0D0,1.0D0,.707106781186548D0,1.0D0,              153P    439
.707106781186548D0,1.0D0,.707106781186548D0,1.0D0,                   153P    440
.707106781186548D0,1.0D0,9.7D0,0.0D0,8.5D0,9.7D0,8.5D0,8.5D0,        153P    441
9.7D0,8.5D0,0.0D0,9.7D0,8.5D0,-8.5D0,9.7D0,0.0D0,-8.5D0,9.7D0,       153P    442
-8.5D0,-8.5D0,9.7D0,-8.5D0,0.0D0,9.7D0,-8.5D0,8.5D0,9.7D0,0.0D0,     153P    443
8.5D0,0.0D0,1.0D0,-1.0D0,0.0D0,0.0D0;                                153P    444
508,1,0,5,17,0,0;                                                    155P    445
508,1,0,5,16,1,0;                                                    157P    446
510,151,2,1,155,157;                                                 159P    447
128,1,1,1,1,0,0,1,0,0,0.0D0,0.0D0,19.0D0,19.0D0,0.0D0,0.0D0,         161P    448
19.0D0,19.0D0,1.0D0,1.0D0,1.0D0,1.0D0,9.7D0,-9.5D0,9.5D0,9.7D0,      161P    449
-9.5D0,-9.5D0,9.7D0,9.5D0,9.5D0,9.7D0,9.5D0,-9.5D0,0.0D0,19.0D0,     161P    450
0.0D0,19.0D0;                                                        161P    451
126,8,2,1,1,0,0,0.0D0,0.0D0,0.0D0,.25D0,.25D0,.5D0,.5D0,.75D0,       163P    452
.75D0,1.0D0,1.0D0,1.0D0,1.0D0,.707106781186547D0,1.0D0,              163P    453
.707106781186547D0,1.0D0,.707106781186547D0,1.0D0,                   163P    454
.707106781186547D0,1.0D0,9.7D0,0.0D0,9.5D0,9.7D0,9.5D0,9.5D0,        163P    455
9.7D0,9.5D0,0.0D0,9.7D0,9.5D0,-9.5D0,9.7D0,0.0D0,-9.5D0,9.7D0,       163P    456
-9.5D0,-9.5D0,9.7D0,-9.5D0,0.0D0,9.7D0,-9.5D0,9.5D0,9.7D0,0.0D0,     163P    457
9.5D0,0.0D0,1.0D0,-1.0D0,0.0D0,0.0D0;                                163P    458
508,1,0,5,18,0,0;                                                    165P    459
508,1,0,5,17,1,0;                                                    167P    460
510,161,2,1,165,167;                                                 169P    461
128,1,8,1,2,0,1,0,0,0,-1.53157894736842D0,-1.53157894736842D0,       171P    462
.510526315789473D0,.510526315789473D0,0.0D0,0.0D0,0.0D0,             171P    463
14.9225651045515D0,14.9225651045515D0,29.845130209103D0,             171P    464
29.845130209103D0,44.7676953136545D0,44.7676953136545D0,             171P    465
59.6902604182061D0,59.6902604182061D0,59.6902604182061D0,1.0D0,      171P    466
1.0D0,.707106781186548D0,.707106781186548D0,1.0D0,1.0D0,             171P    467
.707106781186548D0,.707106781186548D0,1.0D0,1.0D0,                   171P    468
.707106781186548D0,.707106781186548D0,1.0D0,1.0D0,                   171P    469
.707106781186548D0,.707106781186548D0,1.0D0,1.0D0,-9.7D0,            171P    470
-1.16341445918999D-15,-9.5D0,9.7D0,-1.16341445918999D-15,-9.5D0,     171P    471
-9.7D0,-9.5D0,-9.5D0,9.7D0,-9.5D0,-9.5D0,-9.7D0,-9.5D0,              171P    472
1.16341445918999D-15,9.7D0,-9.5D0,1.16341445918999D-15,-9.7D0,       171P    473
-9.5D0,9.5D0,9.7D0,-9.5D0,9.5D0,-9.7D0,1.16341445918999D-15,         171P    474
9.5D0,9.7D0,1.16341445918999D-15,9.5D0,-9.7D0,9.5D0,9.5D0,9.7D0,     171P    475
9.5D0,9.5D0,-9.7D0,9.5D0,-1.16341445918999D-15,9.7D0,9.5D0,          171P    476
-1.16341445918999D-15,-9.7D0,9.5D0,-9.5D0,9.7D0,9.5D0,-9.5D0,        171P    477
-9.7D0,-1.16341445918999D-15,-9.5D0,9.7D0,-1.16341445918999D-15,     171P    478
-9.5D0,-1.53157894736842D0,.510526315789473D0,0.0D0,                 171P    479
59.6902604182061D0;                                                  171P    480
508,1,0,5,9,0,0;                                                     173P    481
508,1,0,5,18,1,0;                                                    175P    482
510,171,2,1,173,175;                                                 177P    483
128,1,8,1,2,0,1,0,0,0,-4.15D0,-4.15D0,1.25D0,1.25D0,0.0D0,0.0D0,     179P    484
0.0D0,7.85398163397448D0,7.85398163397448D0,15.707963267949D0,       179P    485
15.707963267949D0,23.5619449019234D0,23.5619449019234D0,             179P    486
31.4159265358979D0,31.4159265358979D0,31.4159265358979D0,1.0D0,      179P    487
1.0D0,.707106781186548D0,.707106781186548D0,1.0D0,1.0D0,             179P    488
.707106781186548D0,.707106781186548D0,1.0D0,1.0D0,                   179P    489
.707106781186548D0,.707106781186548D0,1.0D0,1.0D0,                   179P    490
.707106781186548D0,.707106781186548D0,1.0D0,1.0D0,13.5D0,            179P    491
-6.12323399573677D-16,-5.0D0,-13.5D0,-6.12323399573677D-16,          179P    492
-5.0D0,13.5D0,-5.0D0,-5.0D0,-13.5D0,-5.0D0,-5.0D0,13.5D0,-5.0D0,     179P    493
6.12323399573677D-16,-13.5D0,-5.0D0,6.12323399573677D-16,13.5D0,     179P    494
-5.0D0,5.0D0,-13.5D0,-5.0D0,5.0D0,13.5D0,6.12323399573677D-16,       179P    495
5.0D0,-13.5D0,6.12323399573677D-16,5.0D0,13.5D0,5.0D0,5.0D0,         179P    496
-13.5D0,5.0D0,5.0D0,13.5D0,5.0D0,-6.12323399573677D-16,-13.5D0,      179P    497
5.0D0,-6.12323399573677D-16,13.5D0,5.0D0,-5.0D0,-13.5D0,5.0D0,       179P    498
-5.0D0,13.5D0,-6.12323399573677D-16,-5.0D0,-13.5D0,                  179P    499
-6.12323399573677D-16,-5.0D0,-4.15D0,1.25D0,0.0D0,                   179P    500
31.4159265358979D0;                                                  179P    501
508,1,0,5,3,0,0;                                                     181P    502
508,1,0,5,12,1,0;                                                    183P    503
510,179,2,1,181,183;                                                 185P    504
514,18,17,1,27,1,39,1,49,1,57,1,67,1,77,1,87,1,99,1,109,1,121,1,     187P    505
131,1,139,1,149,1,159,1,169,1,177,1,185,1;                           187P    506
186,187,1,0;                                                         189P    507
314,75.0D0,75.0D0,75.0D0,;                                           191P    508
S      1G      4D    192P    508                                        T      1
